<svg width="24" height="26" viewBox="0 0 24 26" fill="none" xmlns="http://www.w3.org/2000/svg">
<g filter="url(#filter0_d_606_819)">
<path d="M18.6667 17.5V15.8333C18.6667 14.9493 18.3155 14.1014 17.6904 13.4763C17.0653 12.8512 16.2174 12.5 15.3334 12.5H8.66671C7.78265 12.5 6.93481 12.8512 6.30968 13.4763C5.68456 14.1014 5.33337 14.9493 5.33337 15.8333V17.5" stroke="white" stroke-linecap="round" stroke-linejoin="round"/>
<path d="M12 9.16667C13.8409 9.16667 15.3333 7.67428 15.3333 5.83333C15.3333 3.99238 13.8409 2.5 12 2.5C10.159 2.5 8.66663 3.99238 8.66663 5.83333C8.66663 7.67428 10.159 9.16667 12 9.16667Z" stroke="white" stroke-linecap="round" stroke-linejoin="round"/>
</g>
<defs>
<filter id="filter0_d_606_819" x="-2" y="0" width="28" height="28" filterUnits="userSpaceOnUse" color-interpolation-filters="sRGB">
<feFlood flood-opacity="0" result="BackgroundImageFix"/>
<feColorMatrix in="SourceAlpha" type="matrix" values="0 0 0 0 0 0 0 0 0 0 0 0 0 0 0 0 0 0 127 0" result="hardAlpha"/>
<feOffset dy="4"/>
<feGaussianBlur stdDeviation="2"/>
<feComposite in2="hardAlpha" operator="out"/>
<feColorMatrix type="matrix" values="0 0 0 0 0 0 0 0 0 0 0 0 0 0 0 0 0 0 0.25 0"/>
<feBlend mode="normal" in2="BackgroundImageFix" result="effect1_dropShadow_606_819"/>
<feBlend mode="normal" in="SourceGraphic" in2="effect1_dropShadow_606_819" result="shape"/>
</filter>
</defs>
</svg>
